<svg width="82" height="35" viewBox="0 0 82 35" fill="none" xmlns="http://www.w3.org/2000/svg">
<path d="M1.26018 34.9981H80.7419C81.0924 34.9981 81.4261 34.8621 81.6631 34.6218C81.9003 34.3815 82.0219 34.0585 81.9967 33.7314L81.9612 33.2667C81.8521 31.8465 80.7546 30.2196 78.6015 30.003L56.2185 27.7319L76.3165 4.29275C77.2314 3.22716 77.1455 1.7499 76.1171 0.784764C75.0869 -0.184317 73.5152 -0.265074 72.3758 0.593705L46.587 20.0797L43.7709 3.24293C43.5547 1.95475 42.3901 1.01916 41.001 1.01916C39.6119 1.01916 38.4473 1.95475 38.2312 3.24293L35.3795 20.2866L20.5252 10.1289C19.4047 9.36269 17.8771 9.473 16.893 10.3948C15.9109 11.3166 15.7913 12.7505 16.6097 13.8043L27.3009 27.5802L3.39841 30.0049C1.24339 30.2235 0.145946 31.8506 0.0389297 33.2706L0.00325756 33.7336C-0.0219227 34.0604 0.0997823 34.3834 0.336897 34.6237C0.574012 34.8641 0.90975 35 1.25808 35L1.26018 34.9981Z" fill="#6B4C3B"/>
</svg>
